2.8Hzhigh3min_grf.mot
version=1
nRows=15
nColumns 19
inDegrees=yes
endheader
time	1_ground_force_vx	1_ground_force_vy	1_ground_force_vz	1_ground_force_px	1_ground_force_py	1_ground_force_pz	1_ground_torque_x	1_ground_torque_y	1_ground_torque_z	2_ground_force_vx	2_ground_force_vy	2_ground_force_vz	2_ground_force_px	2_ground_force_py	2_ground_force_pz	2_ground_torque_x	2_ground_torque_y	2_ground_torque_z
            2.502500	           15.747363	          906.246892	          -49.439482	           -0.328466	            0.006256	           -0.417016	            0.027519	            1.583717	           -0.086398	           53.287157	         1116.004543	           43.517800	           -0.348849	            0.005133	           -0.671986	           -0.091963	           -1.926009	           -0.075103
            2.503000	           15.887448	          898.493437	          -49.014502	           -0.328334	            0.006256	           -0.417139	            0.029011	            1.640665	           -0.089501	           53.594495	         1108.642531	           42.693621	           -0.348802	            0.005133	           -0.672160	           -0.102576	           -2.121871	           -0.081713
            2.503500	           16.074886	          890.557261	          -47.994286	           -0.328192	            0.006256	           -0.416950	            0.031995	            1.772534	           -0.095526	           53.621895	         1100.912440	           41.492821	           -0.348679	            0.005133	           -0.671899	           -0.105485	           -2.165716	           -0.081625
            2.504000	           15.345238	          881.359865	          -47.160620	           -0.328217	            0.006256	           -0.417153	            0.030166	            1.732618	           -0.092711	           53.608527	         1091.524138	           40.520770	           -0.348821	            0.005132	           -0.671743	           -0.102250	           -2.081918	           -0.077287
            2.504500	           15.257001	          873.064345	          -46.416402	           -0.328091	            0.006256	           -0.417109	            0.029735	            1.701545	           -0.090463	           53.164232	         1084.712237	           39.605024	           -0.348570	            0.005134	           -0.671964	           -0.092633	           -1.889999	           -0.069008
            2.505000	           15.122939	          864.047828	          -45.721014	           -0.328205	            0.006257	           -0.417379	            0.026889	            1.536314	           -0.081294	           53.147747	         1076.242904	           39.105538	           -0.348509	            0.005133	           -0.671838	           -0.087708	           -1.776089	           -0.064535
            2.505500	           15.217424	          855.573227	          -45.253152	           -0.327961	            0.006257	           -0.417365	            0.024880	            1.398825	           -0.073987	           52.848797	         1068.141049	           38.513629	           -0.348384	            0.005133	           -0.671685	           -0.089243	           -1.803706	           -0.065036
            2.506000	           15.403984	          847.458328	          -44.600556	           -0.327928	            0.006257	           -0.417247	            0.024723	            1.360170	           -0.071584	           53.020253	         1059.489317	           37.731838	           -0.348365	            0.005133	           -0.671618	           -0.103754	           -2.073284	           -0.073836
            2.506500	           15.727259	          840.065697	          -44.220337	           -0.327511	            0.006257	           -0.417202	            0.025843	            1.380370	           -0.072661	           53.371030	         1053.048786	           36.723211	           -0.348125	            0.005135	           -0.671901	           -0.111292	           -2.195872	           -0.076577
            2.507000	           15.546476	          830.870570	          -43.892455	           -0.327554	            0.006257	           -0.417373	            0.028866	            1.542714	           -0.081497	           53.734476	         1043.109186	           35.795957	           -0.348199	            0.005133	           -0.671553	           -0.116064	           -2.253074	           -0.077318
            2.507500	           14.862915	          822.213360	          -42.919021	           -0.327535	            0.006257	           -0.417322	            0.026459	            1.463724	           -0.076405	           54.231810	         1035.011791	           34.828285	           -0.348200	            0.005133	           -0.671570	           -0.113803	           -2.171926	           -0.073086
            2.508000	           15.279538	          813.196088	          -41.995722	           -0.327495	            0.006258	           -0.417455	            0.027411	            1.458874	           -0.075340	           53.889208	         1025.990129	           33.951543	           -0.348216	            0.005133	           -0.671453	           -0.103642	           -1.973221	           -0.065297
            2.508500	           14.778322	          805.802118	          -41.338320	           -0.327210	            0.006257	           -0.417333	            0.022610	            1.232840	           -0.063246	           53.499959	         1016.966624	           33.544101	           -0.348154	            0.005133	           -0.671303	           -0.100258	           -1.905781	           -0.062861
            2.509000	           14.918698	          797.687800	          -40.823174	           -0.327192	            0.006257	           -0.417215	            0.022462	            1.201018	           -0.061464	           53.201070	         1008.864389	           33.092977	           -0.348018	            0.005133	           -0.671382	           -0.104135	           -1.974742	           -0.064776
            2.509500	           15.013806	          787.049617	          -40.272883	           -0.327219	            0.006259	           -0.417638	            0.021391	            1.121352	           -0.057379	           52.955527	          998.922089	           32.306766	           -0.348112	            0.005132	           -0.671146	           -0.110037	           -2.075675	           -0.067131
